<svg width="103" height="102" viewBox="0 0 103 102" fill="none" xmlns="http://www.w3.org/2000/svg">
<path fill-rule="evenodd" clip-rule="evenodd" d="M82.2094 89.4615C84.9648 89.4615 86.8951 86.7408 85.9848 84.1401L84.7464 80.6017C84.1848 78.9973 82.6707 77.9231 80.9709 77.9231H36.3256C33.5953 77.9231 31.6675 75.2483 32.5308 72.6582L33.7103 69.1197C34.2548 67.4863 35.7833 66.3846 37.5051 66.3846H88.6333C90.3476 66.3846 91.8714 67.4771 92.4216 69.1008L101.441 95.7162C102.32 98.3099 100.392 101 97.6529 101H5.00324C2.25364 101 0.323869 98.2899 1.22329 95.6916L33.0695 3.69156C33.6271 2.08053 35.1446 1 36.8494 1H65.7786C67.4784 1 68.9925 2.07425 69.554 3.6786L85.6002 49.5248C86.5104 52.1255 84.5802 54.8462 81.8248 54.8462H29.7237C28.0239 54.8462 26.5098 55.9204 25.9482 57.5248L16.6329 84.1401C15.7226 86.7408 17.6529 89.4615 20.4083 89.4615H82.2094ZM66.0555 43.3077C68.8109 43.3077 70.7412 40.587 69.831 37.9863L61.8617 15.2171C61.3002 13.6127 59.7861 12.5385 58.0863 12.5385H44.5314C42.8316 12.5385 41.3175 13.6127 40.7559 15.2171L32.7867 37.9863C31.8765 40.587 33.8067 43.3077 36.5621 43.3077H66.0555Z" fill="#fdfdfd"/>
<path d="M40.7559 15.2171L39.8121 14.8867L40.7559 15.2171ZM69.831 37.9863L68.8871 38.3166L69.831 37.9863ZM61.8617 15.2171L60.9179 15.5474L61.8617 15.2171ZM85.6002 49.5248L84.6563 49.8551L85.6002 49.5248ZM69.554 3.6786L68.6102 4.00895L69.554 3.6786ZM33.0695 3.69156L32.1245 3.36445L33.0695 3.69156ZM101.441 95.7162L102.388 95.3952L101.441 95.7162ZM92.4216 69.1008L93.3687 68.7798L92.4216 69.1008ZM85.9848 84.1401L86.9287 83.8098L85.9848 84.1401ZM84.7464 80.6017L83.8025 80.932L84.7464 80.6017ZM83.8025 80.932L85.041 84.4705L86.9287 83.8098L85.6902 80.2713L83.8025 80.932ZM36.3256 78.9231H80.9709V76.9231H36.3256V78.9231ZM32.7616 68.8035L31.5821 72.3419L33.4795 72.9744L34.659 69.4359L32.7616 68.8035ZM88.6333 65.3846H37.5051V67.3846H88.6333V65.3846ZM102.388 95.3952L93.3687 68.7798L91.4745 69.4217L100.494 96.0371L102.388 95.3952ZM5.00324 102H97.6529V100H5.00324V102ZM32.1245 3.36445L0.278307 95.3645L2.16828 96.0187L34.0144 4.01867L32.1245 3.36445ZM65.7786 0H36.8494V2H65.7786V0ZM86.5441 49.1944L70.4979 3.34825L68.6102 4.00895L84.6563 49.8551L86.5441 49.1944ZM29.7237 55.8462H81.8248V53.8462H29.7237V55.8462ZM17.5767 84.4705L26.8921 57.8551L25.0044 57.1944L15.689 83.8098L17.5767 84.4705ZM82.2094 88.4615H20.4083V90.4615H82.2094V88.4615ZM60.9179 15.5474L68.8871 38.3166L70.7748 37.6559L62.8056 14.8867L60.9179 15.5474ZM44.5314 13.5385H58.0863V11.5385H44.5314V13.5385ZM33.7306 38.3166L41.6998 15.5474L39.8121 14.8867L31.8429 37.6559L33.7306 38.3166ZM66.0555 42.3077H36.5621V44.3077H66.0555V42.3077ZM31.8429 37.6559C30.705 40.9068 33.1179 44.3077 36.5621 44.3077V42.3077C34.4956 42.3077 33.0479 40.2672 33.7306 38.3166L31.8429 37.6559ZM44.5314 11.5385C42.4067 11.5385 40.514 12.8813 39.8121 14.8867L41.6998 15.5474C42.1209 14.3441 43.2565 13.5385 44.5314 13.5385V11.5385ZM68.8871 38.3166C69.5698 40.2672 68.1221 42.3077 66.0555 42.3077V44.3077C69.4998 44.3077 71.9126 40.9068 70.7748 37.6559L68.8871 38.3166ZM62.8056 14.8867C62.1037 12.8813 60.211 11.5385 58.0863 11.5385V13.5385C59.3611 13.5385 60.4967 14.3442 60.9179 15.5474L62.8056 14.8867ZM15.689 83.8098C14.5512 87.0607 16.9641 90.4615 20.4083 90.4615V88.4615C18.3418 88.4615 16.894 86.421 17.5767 84.4705L15.689 83.8098ZM29.7237 53.8462C27.599 53.8462 25.7063 55.189 25.0044 57.1944L26.8921 57.8551C27.3132 56.6518 28.4489 55.8462 29.7237 55.8462V53.8462ZM84.6563 49.8551C85.339 51.8056 83.8913 53.8462 81.8248 53.8462V55.8462C85.269 55.8462 87.6819 52.4453 86.5441 49.1944L84.6563 49.8551ZM65.7786 2C67.0534 2 68.189 2.80569 68.6102 4.00895L70.4979 3.34825C69.796 1.34282 67.9033 0 65.7786 0V2ZM34.0144 4.01867C34.4327 2.8104 35.5708 2 36.8494 2V0C34.7184 0 32.8215 1.35066 32.1245 3.36445L34.0144 4.01867ZM5.00324 100C2.94104 100 1.49371 97.9674 2.16828 96.0187L0.278307 95.3645C-0.845973 98.6124 1.56624 102 5.00324 102V100ZM100.494 96.0371C101.153 97.9824 99.7069 100 97.6529 100V102C101.076 102 103.487 98.6374 102.388 95.3952L100.494 96.0371ZM88.6333 67.3846C89.919 67.3846 91.0619 68.204 91.4745 69.4217L93.3687 68.7798C92.6809 66.7502 90.7762 65.3846 88.6333 65.3846V67.3846ZM34.659 69.4359C35.0673 68.2109 36.2138 67.3846 37.5051 67.3846V65.3846C35.3529 65.3846 33.4422 66.7618 32.7616 68.8035L34.659 69.4359ZM36.3256 76.9231C34.2779 76.9231 32.832 74.917 33.4795 72.9744L31.5821 72.3419C30.5029 75.5796 32.9128 78.9231 36.3256 78.9231V76.9231ZM85.041 84.4705C85.7236 86.421 84.2759 88.4615 82.2094 88.4615V90.4615C85.6536 90.4615 88.0665 87.0607 86.9287 83.8098L85.041 84.4705ZM85.6902 80.2713C84.9883 78.2659 83.0956 76.9231 80.9709 76.9231V78.9231C82.2458 78.9231 83.3814 79.7288 83.8025 80.932L85.6902 80.2713Z" fill="#fdfdfd"/>
</svg>
